<svg viewBox="0 0 1024 576" xmlns="http://www.w3.org/2000/svg">
  <defs>
    <linearGradient id="sky6" x1="0" y1="0" x2="0" y2="1">
      <stop offset="0%" stop-color="#0A0A0F"/>
      <stop offset="100%" stop-color="#3D2B4F"/>
    </linearGradient>
  </defs>
  <rect width="1024" height="576" fill="url(#sky6)"/>
  <!-- habit loop spiral -->
  <path d="M512 288 m0 -110 a110 110 0 1 1 -78 188" fill="none" stroke="#B8860B" stroke-width="6" stroke-linecap="round" opacity="0.8"/>
  <polygon points="424,372 444,366 438,388" fill="#B8860B" opacity="0.8"/>
  <!-- book -->
  <g transform="translate(440,260)">
    <path d="M0 -16 L80 0 L80 50 L0 34 Z" fill="#E8D5B0"/>
    <path d="M0 -16 L-80 0 L-80 50 L0 34 Z" fill="#E8D5B0" opacity="0.85"/>
  </g>
  <!-- small ghost -->
  <g transform="translate(620,280)" fill="#E8D5B0" opacity="0.9">
    <path d="M-26 10 C-26 -20 26 -20 26 10 L26 36 L16 28 L8 36 L0 28 L-8 36 L-16 28 L-26 36 Z"/>
    <circle cx="-9" cy="0" r="3" fill="#15101c"/>
    <circle cx="9" cy="0" r="3" fill="#15101c"/>
  </g>
  <text x="512" y="540" text-anchor="middle" font-family="Georgia, serif" font-size="22" fill="#E8D5B0" letter-spacing="1.5">La Psicologia delle Abitudini nei Libri Horror</text>
</svg>
