<svg viewBox="0 0 1024 576" xmlns="http://www.w3.org/2000/svg">
  <defs>
    <linearGradient id="sky4" x1="0" y1="0" x2="0" y2="1">
      <stop offset="0%" stop-color="#3D2B4F"/>
      <stop offset="100%" stop-color="#0F0C16"/>
    </linearGradient>
    <radialGradient id="bookglow" cx="50%" cy="55%" r="40%">
      <stop offset="0%" stop-color="#FFF6DF" stop-opacity="0.8"/>
      <stop offset="100%" stop-color="#FFF6DF" stop-opacity="0"/>
    </radialGradient>
  </defs>
  <rect width="1024" height="576" fill="url(#sky4)"/>
  <ellipse cx="512" cy="320" rx="260" ry="160" fill="url(#bookglow)"/>
  <!-- open book -->
  <g transform="translate(512,360)">
    <path d="M-180 -20 L0 10 L180 -20 L180 30 L0 60 L-180 30 Z" fill="#E8D5B0"/>
    <path d="M-170 -14 L-10 12 L-10 50 L-170 24 Z" fill="#fff" opacity="0.4"/>
    <path d="M170 -14 L10 12 L10 50 L170 24 Z" fill="#fff" opacity="0.4"/>
  </g>
  <!-- stars rising from book -->
  <g fill="#FFF6DF">
    <path d="M512 250 l4 10 10 1 -7 7 2 10 -9 -5 -9 5 2 -10 -7 -7 10 -1z"/>
    <circle cx="460" cy="200" r="3"/>
    <circle cx="565" cy="190" r="2.5"/>
    <circle cx="500" cy="160" r="2"/>
  </g>
  <text x="512" y="540" text-anchor="middle" font-family="Georgia, serif" font-size="24" fill="#E8D5B0" letter-spacing="2">Storytelling Educativo per Bambini</text>
</svg>
